{
	"asset":{
		"generator":"Khronos glTF Blender I/O v5.1.20",
		"version":"2.0"
	},
	"scene":0,
	"scenes":[
		{
			"name":"Scene",
			"nodes":[
				0,
				1,
				2,
				3,
				4,
				5
			]
		}
	],
	"nodes":[
		{
			"mesh":0,
			"name":"Cube.005",
			"rotation":[
				-0.01997903361916542,
				0.00822901725769043,
				-0.6947181820869446,
				0.7189574241638184
			],
			"scale":[
				1.002449870109558,
				0.5325810313224792,
				0.38134095072746277
			],
			"translation":[
				0.22649513185024261,
				-2.0481350421905518,
				0.45152390003204346
			]
		},
		{
			"mesh":1,
			"name":"Cube.004",
			"rotation":[
				0.014420049265027046,
				-0.004792308434844017,
				-0.691067636013031,
				0.7226303815841675
			],
			"scale":[
				0.9998076558113098,
				0.5325503945350647,
				0.5531805753707886
			],
			"translation":[
				0.17387402057647705,
				-0.0008893907070159912,
				-1.4255825281143188
			]
		},
		{
			"mesh":2,
			"name":"Cube.003",
			"rotation":[
				-0.009895590133965015,
				0.00010647221643012017,
				-0.01075841300189495,
				0.9998931884765625
			],
			"scale":[
				0.6227263808250427,
				0.6508166790008545,
				0.7654348015785217
			],
			"translation":[
				0.07650603353977203,
				1.6966856718063354,
				-0.0017145276069641113
			]
		},
		{
			"mesh":3,
			"name":"Cube.002",
			"rotation":[
				-0.004442785866558552,
				0.014723772183060646,
				-0.7088600397109985,
				0.7051815390586853
			],
			"scale":[
				1.049752950668335,
				0.512328565120697,
				0.43910929560661316
			],
			"translation":[
				0.11651372909545898,
				-2.0675134658813477,
				-0.4691758453845978
			]
		},
		{
			"mesh":4,
			"name":"Cube.001",
			"rotation":[
				0.002490364946424961,
				-0.016198476776480675,
				-0.690894365310669,
				0.7227699756622314
			],
			"scale":[
				0.9998000264167786,
				0.5325323939323425,
				0.5298319458961487
			],
			"translation":[
				0.2178039252758026,
				0.040496826171875,
				1.3990070819854736
			]
		},
		{
			"mesh":5,
			"name":"Cube",
			"rotation":[
				0,
				5.0418668251950294e-05,
				0,
				1
			],
			"scale":[
				0.6766193509101868,
				1,
				0.8416427373886108
			]
		}
	],
	"animations":[
		{
			"channels":[
				{
					"sampler":0,
					"target":{
						"node":0,
						"path":"rotation"
					}
				}
			],
			"name":"Cube.005Action",
			"samplers":[
				{
					"input":19,
					"interpolation":"LINEAR",
					"output":20
				}
			]
		},
		{
			"channels":[
				{
					"sampler":0,
					"target":{
						"node":1,
						"path":"rotation"
					}
				}
			],
			"name":"Cube.004Action.001",
			"samplers":[
				{
					"input":21,
					"interpolation":"LINEAR",
					"output":22
				}
			]
		},
		{
			"channels":[
				{
					"sampler":0,
					"target":{
						"node":2,
						"path":"rotation"
					}
				}
			],
			"name":"Cube.003Action",
			"samplers":[
				{
					"input":23,
					"interpolation":"LINEAR",
					"output":24
				}
			]
		},
		{
			"channels":[
				{
					"sampler":0,
					"target":{
						"node":3,
						"path":"rotation"
					}
				}
			],
			"name":"Cube.002Action",
			"samplers":[
				{
					"input":19,
					"interpolation":"LINEAR",
					"output":25
				}
			]
		}
	],
	"meshes":[
		{
			"name":"Cube.007",
			"primitives":[
				{
					"attributes":{
						"POSITION":0,
						"NORMAL":1,
						"TEXCOORD_0":2
					},
					"indices":3
				}
			]
		},
		{
			"name":"Cube.008",
			"primitives":[
				{
					"attributes":{
						"POSITION":4,
						"NORMAL":5,
						"TEXCOORD_0":6
					},
					"indices":3
				}
			]
		},
		{
			"name":"Cube.009",
			"primitives":[
				{
					"attributes":{
						"POSITION":7,
						"NORMAL":8,
						"TEXCOORD_0":9
					},
					"indices":3
				}
			]
		},
		{
			"name":"Cube.010",
			"primitives":[
				{
					"attributes":{
						"POSITION":10,
						"NORMAL":11,
						"TEXCOORD_0":12
					},
					"indices":3
				}
			]
		},
		{
			"name":"Cube.011",
			"primitives":[
				{
					"attributes":{
						"POSITION":13,
						"NORMAL":14,
						"TEXCOORD_0":15
					},
					"indices":3
				}
			]
		},
		{
			"name":"Cube.012",
			"primitives":[
				{
					"attributes":{
						"POSITION":16,
						"NORMAL":17,
						"TEXCOORD_0":18
					},
					"indices":3
				}
			]
		}
	],
	"accessors":[
		{
			"bufferView":0,
			"componentType":5126,
			"count":24,
			"max":[
				1,
				1,
				1
			],
			"min":[
				-1,
				-1,
				-1
			],
			"type":"VEC3"
		},
		{
			"bufferView":1,
			"componentType":5126,
			"count":24,
			"type":"VEC3"
		},
		{
			"bufferView":2,
			"componentType":5126,
			"count":24,
			"type":"VEC2"
		},
		{
			"bufferView":3,
			"componentType":5123,
			"count":36,
			"type":"SCALAR"
		},
		{
			"bufferView":4,
			"componentType":5126,
			"count":24,
			"max":[
				1,
				1,
				1
			],
			"min":[
				-1,
				-1,
				-1
			],
			"type":"VEC3"
		},
		{
			"bufferView":5,
			"componentType":5126,
			"count":24,
			"type":"VEC3"
		},
		{
			"bufferView":6,
			"componentType":5126,
			"count":24,
			"type":"VEC2"
		},
		{
			"bufferView":7,
			"componentType":5126,
			"count":24,
			"max":[
				1,
				1,
				1
			],
			"min":[
				-1,
				-1,
				-1
			],
			"type":"VEC3"
		},
		{
			"bufferView":8,
			"componentType":5126,
			"count":24,
			"type":"VEC3"
		},
		{
			"bufferView":9,
			"componentType":5126,
			"count":24,
			"type":"VEC2"
		},
		{
			"bufferView":10,
			"componentType":5126,
			"count":24,
			"max":[
				1,
				1,
				1
			],
			"min":[
				-1,
				-1,
				-1
			],
			"type":"VEC3"
		},
		{
			"bufferView":11,
			"componentType":5126,
			"count":24,
			"type":"VEC3"
		},
		{
			"bufferView":12,
			"componentType":5126,
			"count":24,
			"type":"VEC2"
		},
		{
			"bufferView":13,
			"componentType":5126,
			"count":24,
			"max":[
				1,
				1,
				1
			],
			"min":[
				-1,
				-1,
				-1
			],
			"type":"VEC3"
		},
		{
			"bufferView":14,
			"componentType":5126,
			"count":24,
			"type":"VEC3"
		},
		{
			"bufferView":15,
			"componentType":5126,
			"count":24,
			"type":"VEC2"
		},
		{
			"bufferView":16,
			"componentType":5126,
			"count":24,
			"max":[
				1,
				1,
				1
			],
			"min":[
				-1,
				-1,
				-1
			],
			"type":"VEC3"
		},
		{
			"bufferView":17,
			"componentType":5126,
			"count":24,
			"type":"VEC3"
		},
		{
			"bufferView":18,
			"componentType":5126,
			"count":24,
			"type":"VEC2"
		},
		{
			"bufferView":19,
			"componentType":5126,
			"count":31,
			"max":[
				1.25
			],
			"min":[
				0
			],
			"type":"SCALAR"
		},
		{
			"bufferView":20,
			"componentType":5126,
			"count":31,
			"type":"VEC4"
		},
		{
			"bufferView":21,
			"componentType":5126,
			"count":126,
			"max":[
				5.208333333333333
			],
			"min":[
				0
			],
			"type":"SCALAR"
		},
		{
			"bufferView":22,
			"componentType":5126,
			"count":126,
			"type":"VEC4"
		},
		{
			"bufferView":23,
			"componentType":5126,
			"count":46,
			"max":[
				1.9166666666666667
			],
			"min":[
				0.041666666666666664
			],
			"type":"SCALAR"
		},
		{
			"bufferView":24,
			"componentType":5126,
			"count":46,
			"type":"VEC4"
		},
		{
			"bufferView":25,
			"componentType":5126,
			"count":31,
			"type":"VEC4"
		}
	],
	"bufferViews":[
		{
			"buffer":0,
			"byteLength":288,
			"byteOffset":0,
			"target":34962
		},
		{
			"buffer":0,
			"byteLength":288,
			"byteOffset":288,
			"target":34962
		},
		{
			"buffer":0,
			"byteLength":192,
			"byteOffset":576,
			"target":34962
		},
		{
			"buffer":0,
			"byteLength":72,
			"byteOffset":768,
			"target":34963
		},
		{
			"buffer":0,
			"byteLength":288,
			"byteOffset":840,
			"target":34962
		},
		{
			"buffer":0,
			"byteLength":288,
			"byteOffset":1128,
			"target":34962
		},
		{
			"buffer":0,
			"byteLength":192,
			"byteOffset":1416,
			"target":34962
		},
		{
			"buffer":0,
			"byteLength":288,
			"byteOffset":1608,
			"target":34962
		},
		{
			"buffer":0,
			"byteLength":288,
			"byteOffset":1896,
			"target":34962
		},
		{
			"buffer":0,
			"byteLength":192,
			"byteOffset":2184,
			"target":34962
		},
		{
			"buffer":0,
			"byteLength":288,
			"byteOffset":2376,
			"target":34962
		},
		{
			"buffer":0,
			"byteLength":288,
			"byteOffset":2664,
			"target":34962
		},
		{
			"buffer":0,
			"byteLength":192,
			"byteOffset":2952,
			"target":34962
		},
		{
			"buffer":0,
			"byteLength":288,
			"byteOffset":3144,
			"target":34962
		},
		{
			"buffer":0,
			"byteLength":288,
			"byteOffset":3432,
			"target":34962
		},
		{
			"buffer":0,
			"byteLength":192,
			"byteOffset":3720,
			"target":34962
		},
		{
			"buffer":0,
			"byteLength":288,
			"byteOffset":3912,
			"target":34962
		},
		{
			"buffer":0,
			"byteLength":288,
			"byteOffset":4200,
			"target":34962
		},
		{
			"buffer":0,
			"byteLength":192,
			"byteOffset":4488,
			"target":34962
		},
		{
			"buffer":0,
			"byteLength":124,
			"byteOffset":4680
		},
		{
			"buffer":0,
			"byteLength":496,
			"byteOffset":4804
		},
		{
			"buffer":0,
			"byteLength":504,
			"byteOffset":5300
		},
		{
			"buffer":0,
			"byteLength":2016,
			"byteOffset":5804
		},
		{
			"buffer":0,
			"byteLength":184,
			"byteOffset":7820
		},
		{
			"buffer":0,
			"byteLength":736,
			"byteOffset":8004
		},
		{
			"buffer":0,
			"byteLength":496,
			"byteOffset":8740
		}
	],
	"buffers":[
		{
			"byteLength":9236,
			"uri":"Player.bin"
		}
	]
}
